<?xml version="1.0" encoding="UTF-8"?><svg id="black" xmlns="http://www.w3.org/2000/svg" viewBox="0 0 623.74 109.2"><defs><style>.cls-1{fill:#20272b;stroke-width:0px;}</style></defs><path class="cls-1" d="m90.12,54.71C89.94,25.07,114.12.21,144.75.41c30.47.2,55.31,23.83,54.86,54.81-.44,30.23-24.06,54.03-55.13,53.97-30.25-.05-54.35-24.19-54.35-54.49Z"/><path class="cls-1" d="m419.85,55.61c.11-31.36,24.22-55.85,55.69-55.18,29.73.63,54.47,24,53.79,55-.68,30.83-24.82,54.62-56.54,53.73-29.18-.82-53.09-24.55-52.94-53.55Z"/><path class="cls-1" d="m361.02,2.08c6.32,0,12.64-.24,18.95.06,9.47.45,18.07,3.41,24.76,10.48,5.18,5.48,7.54,12.15,7.35,19.69-.17,6.65-2.77,12.31-7.15,17.22-1.17,1.31-2.32,2.64-3.52,3.93-.62.66-.63,1.13.1,1.75,2.81,2.38,5.55,4.81,7.64,7.9,6.58,9.72,5.99,22.57-1.37,31.75-4.94,6.16-11.51,9.57-18.97,11.38-3.31.8-6.78,1.22-10.19,1.32-7.91.22-15.83.16-23.75.18-3,0-6-.06-8.99-.12-7.01-.14-12.75-4.22-14.83-10.82-.63-2.01-.74-4.25-.75-6.38-.1-19.16-.13-38.31-.15-57.47,0-5.24.1-10.47.18-15.71.11-7.93,6-14.55,13.92-15.08,5.57-.37,11.19-.07,16.78-.07,0,0,0,.01,0,.02Z"/><path class="cls-1" d="m.56,54.72c0-12.4-.01-24.79,0-37.19.01-6.59,3.85-12.26,9.97-14.59,1.36-.52,2.87-.87,4.32-.87,11.31.01,22.62.12,33.93.23,4.48.04,8.95.31,13.21,1.92,11.08,4.19,18.56,11.64,20.17,23.7,1.13,8.51-1.79,15.98-7.64,22.28-.95,1.03-1.88,2.08-2.9,3.04-.78.73-.7,1.19.07,1.91,2.14,1.97,4.42,3.86,6.25,6.1,5.88,7.2,7.52,15.39,4.87,24.3-2.69,9.05-8.84,14.97-17.39,18.61-5.45,2.31-11.13,3.42-17.03,3.45-8.4.05-16.79.13-25.19.1-3.35-.01-6.76.09-10.03-.5-6.05-1.08-10.04-4.87-11.94-10.7-.49-1.52-.64-3.22-.65-4.84-.05-12.32-.03-24.63-.03-36.95Z"/><path class="cls-1" d="m246.04,1.85c10.24,0,20.48-.03,30.71.01,3.69.01,7.24.75,10.36,2.88,7.39,5.04,9.03,13.47,4.13,20.98-8.14,12.49-16.28,24.98-24.41,37.47-1.98,3.04-3.68,6.2-4.16,9.85-.25,1.9-.34,3.82-.36,5.74-.04,4.12-.05,8.24.03,12.36.21,10.69-10.13,18.74-21.08,15.93-6.75-1.73-10.83-6.19-12.26-13-.23-1.12-.18-2.31-.18-3.46-.01-5.28-.03-10.56.02-15.84.04-4.15-1.62-7.64-3.82-11.02-8.14-12.49-16.21-25.02-24.28-37.56-1.7-2.65-2.99-5.48-3.07-8.7-.12-5.22,2.28-9.2,6.24-12.34,3.33-2.65,7.33-3.26,11.42-3.28,10.24-.05,20.48-.02,30.71-.02Z"/><path class="cls-1" d="m575.99,1.85c10.16,0,20.31-.03,30.47.02,3.74.02,7.31.8,10.47,2.93,7.19,4.86,8.88,13.48,4.1,20.83-8.77,13.51-17.55,27.01-26.32,40.52-1.81,2.79-2.75,5.81-2.71,9.16.06,5.28-.1,10.56.05,15.83.2,6.93-4.31,12.94-10.56,15.38-6.83,2.67-14.95.55-19.53-5.17-2.18-2.73-3.41-5.82-3.37-9.39.06-5.16-.1-10.32.05-15.47.14-4.72-1.32-8.81-3.87-12.72-8.22-12.58-16.35-25.22-24.48-37.85-2.2-3.42-3.35-7.1-2.7-11.27.84-5.36,6-11.02,11.4-12.05,2.3-.44,4.67-.71,7.01-.73,10-.08,19.99-.03,29.99-.03Z"/></svg>